<svg xmlns="http://www.w3.org/2000/svg" xmlns:xlink="http://www.w3.org/1999/xlink" width="750" height="343"
     viewBox="0 0 750 343">
    <defs>
        <rect id="a" width="344.9" height="59.51" x="80.87" y="283.24" rx="5"/>
    </defs>
    <g fill="none" fill-rule="evenodd" transform="translate(1)">
        <rect width="342.9" height="57.51" x="81.87" y="1.24" stroke="#676F76" stroke-width="2" rx="5"/>
        <path fill="#38688F"
              d="M143.77 22.39h4.94c5 0 7.5 2.92 7.5 8.77 0 5.9-2.5 8.84-7.5 8.84h-4.94V22.39zm2.17 1.97v13.66h2.57c1.87 0 3.26-.56 4.16-1.68.9-1.11 1.35-2.84 1.35-5.17 0-2.3-.46-4.01-1.36-5.13-.9-1.12-2.29-1.68-4.15-1.68h-2.57zm23.74 14.3a5.57 5.57 0 0 1-4.18 1.58 5.59 5.59 0 0 1-4.18-1.58 5.84 5.84 0 0 1-1.55-4.28v-2c0-1.79.51-3.21 1.55-4.27a5.59 5.59 0 0 1 4.18-1.59c1.75 0 3.15.53 4.18 1.59a5.84 5.84 0 0 1 1.56 4.27v2c0 1.8-.52 3.22-1.56 4.28zm-1.48-9.17a3.4 3.4 0 0 0-2.7-1.14 3.4 3.4 0 0 0-2.7 1.13 4.52 4.52 0 0 0-.98 3.09v1.62c0 1.3.33 2.33.98 3.08a3.4 3.4 0 0 0 2.7 1.13 3.4 3.4 0 0 0 2.7-1.13 4.5 4.5 0 0 0 .99-3.08v-1.62a4.5 4.5 0 0 0-.99-3.08zm19.64.76V40h-1.87v-9.14c0-1.64-.56-2.46-1.7-2.46-.57 0-1.03.24-1.36.72-.33.47-.5 1.12-.5 1.94V40h-1.86v-9.16c0-1.62-.57-2.44-1.7-2.44-.6 0-1.06.24-1.4.72a3.28 3.28 0 0 0-.51 1.94V40h-1.87V26.76h1.86v1.86h.22c.16-.66.47-1.17.91-1.55.45-.37.99-.56 1.61-.56.62 0 1.14.18 1.57.55.42.37.7.88.84 1.53h.22a2.73 2.73 0 0 1 2.73-2.08c.92 0 1.62.32 2.1.95.47.63.71 1.56.71 2.79zm9.97 8.08a3.9 3.9 0 0 0 2.8-1 3.68 3.68 0 0 0 1.1-2.68h2.17a5.4 5.4 0 0 1-1.68 4.14 6.15 6.15 0 0 1-4.39 1.58c-2.06 0-3.67-.67-4.82-2-1.15-1.33-1.72-3.2-1.72-5.6v-3.15c0-2.4.57-4.27 1.72-5.6 1.15-1.34 2.76-2 4.82-2a6 6 0 0 1 4.41 1.6c1.08 1.06 1.64 2.54 1.67 4.42h-2.18a4.1 4.1 0 0 0-1.13-2.88 3.73 3.73 0 0 0-2.78-1.1c-1.42 0-2.5.47-3.23 1.41-.74.95-1.1 2.33-1.1 4.15v3.14c0 1.82.37 3.2 1.1 4.15.74.95 1.82 1.42 3.24 1.42zm19.73.33a5.57 5.57 0 0 1-4.18 1.58 5.59 5.59 0 0 1-4.18-1.58 5.84 5.84 0 0 1-1.55-4.28v-2c0-1.79.52-3.21 1.55-4.27a5.59 5.59 0 0 1 4.18-1.59 5.6 5.6 0 0 1 4.19 1.59 5.84 5.84 0 0 1 1.55 4.27v2c0 1.8-.52 3.22-1.56 4.28zm-1.48-9.17a3.4 3.4 0 0 0-2.7-1.14 3.4 3.4 0 0 0-2.7 1.13 4.52 4.52 0 0 0-.98 3.09v1.62c0 1.3.33 2.33.99 3.08a3.4 3.4 0 0 0 2.7 1.13 3.4 3.4 0 0 0 2.7-1.13c.65-.75.98-1.78.98-3.08v-1.62a4.5 4.5 0 0 0-.99-3.08zM223.9 40V26.76h1.99v2.33h.17a4 4 0 0 1 1.63-1.9c.73-.45 1.6-.68 2.6-.68 1.45 0 2.55.42 3.3 1.26.77.84 1.15 2.05 1.15 3.64V40h-2.08v-8.07c0-1.2-.24-2.08-.74-2.65-.5-.58-1.26-.86-2.3-.86a3.5 3.5 0 0 0-2.64 1.04c-.67.7-1 1.6-1 2.74V40h-2.08zM243 23.2h2.06v3.6h5.37v1.76h-5.35v7.47c0 .72.25 1.27.74 1.65.5.38 1.2.57 2.14.57 1.15 0 1.96-.02 2.43-.07v1.76c-.44.08-1.3.12-2.58.12-1.64 0-2.85-.32-3.63-.97-.78-.65-1.18-1.66-1.18-3.03v-7.5h-3.52V26.8H243v-3.6zm18.36 5.1c-1.1 0-1.97.35-2.6 1.07-.62.71-.94 1.7-.94 2.98h6.97c0-1.27-.3-2.26-.91-2.98a3.12 3.12 0 0 0-2.52-1.08zm3.43 8.28h2.02a4.04 4.04 0 0 1-1.75 2.66c-.97.67-2.15 1-3.54 1-1.82 0-3.23-.52-4.24-1.56-1-1.04-1.5-2.5-1.5-4.4V32.3c0-1.74.5-3.14 1.53-4.2a5.4 5.4 0 0 1 4.07-1.59c1.71 0 3.05.54 4.02 1.62.96 1.08 1.44 2.58 1.44 4.5v1.3h-9.02v.53c0 1.21.34 2.18 1 2.9a3.49 3.49 0 0 0 2.7 1.09c.84 0 1.55-.17 2.13-.5.57-.33.96-.79 1.14-1.37zm6.96 3.42V26.76h2v2.33h.16a4 4 0 0 1 1.63-1.9c.73-.45 1.6-.68 2.6-.68 1.45 0 2.55.42 3.31 1.26.76.84 1.14 2.05 1.14 3.64V40h-2.07v-8.07c0-1.2-.25-2.08-.75-2.65-.5-.58-1.26-.86-2.3-.86a3.5 3.5 0 0 0-2.64 1.04c-.67.7-1 1.6-1 2.74V40h-2.08zm19.12-16.8h2.05v3.6h5.37v1.76h-5.35v7.47c0 .72.25 1.27.74 1.65.5.38 1.2.57 2.14.57 1.15 0 1.96-.02 2.43-.07v1.76c-.44.08-1.3.12-2.57.12-1.65 0-2.86-.32-3.64-.97-.78-.65-1.17-1.66-1.17-3.03v-7.5h-3.53V26.8h3.53v-3.6zM315.06 38v2h-10.49V22.39h2.14v15.6h8.35zm14.16.66a5.57 5.57 0 0 1-4.18 1.58 5.59 5.59 0 0 1-4.18-1.58 5.84 5.84 0 0 1-1.55-4.28v-2c0-1.79.51-3.21 1.55-4.27a5.59 5.59 0 0 1 4.18-1.59c1.75 0 3.15.53 4.18 1.59a5.84 5.84 0 0 1 1.56 4.27v2c0 1.8-.52 3.22-1.56 4.28zm-1.48-9.17a3.4 3.4 0 0 0-2.7-1.14 3.4 3.4 0 0 0-2.7 1.13 4.52 4.52 0 0 0-.98 3.09v1.62c0 1.3.33 2.33.99 3.08a3.4 3.4 0 0 0 2.7 1.13 3.4 3.4 0 0 0 2.7-1.13c.65-.75.98-1.78.98-3.08v-1.62a4.5 4.5 0 0 0-.99-3.08zm11.91 10.74a4.27 4.27 0 0 1-3.05-1.1 3.8 3.8 0 0 1-1.16-2.89c0-1.17.41-2.1 1.22-2.76a5.85 5.85 0 0 1 3.48-1.13l3.64-.19v-1.2c0-.82-.25-1.46-.74-1.9-.49-.45-1.2-.67-2.12-.67-.76 0-1.4.16-1.91.46-.51.31-.86.75-1.03 1.32h-2.04a3.58 3.58 0 0 1 1.58-2.58c.93-.66 2.07-1 3.43-1a5.3 5.3 0 0 1 3.61 1.14 4.06 4.06 0 0 1 1.28 3.21v9.07h-1.97v-1.99h-.21a3.43 3.43 0 0 1-1.51 1.64c-.7.38-1.53.57-2.5.57zm.6-1.82c1 0 1.84-.3 2.52-.88a2.82 2.82 0 0 0 1.01-2.22v-1.56l-3.4.16c-.93.04-1.64.25-2.12.64-.48.39-.72.93-.72 1.62 0 .69.25 1.24.73 1.64a3 3 0 0 0 1.98.6zm12.9-6v1.9c0 1.22.32 2.2.96 2.93a3.36 3.36 0 0 0 2.62 1.09 3.3 3.3 0 0 0 2.6-1.09c.64-.72.97-1.7.97-2.93v-1.9c0-1.22-.33-2.2-.97-2.92a3.3 3.3 0 0 0-2.6-1.09c-1.1 0-1.97.37-2.62 1.09-.64.72-.97 1.7-.97 2.92zm7.17 5.56h-.23a3.62 3.62 0 0 1-1.53 1.68c-.68.38-1.5.57-2.44.57a4.72 4.72 0 0 1-3.68-1.53 5.86 5.86 0 0 1-1.38-4.09v-2.46c0-1.7.46-3.05 1.38-4.07a4.72 4.72 0 0 1 3.68-1.53c.96 0 1.78.2 2.46.59.67.4 1.15.95 1.45 1.68h.22v-7.25h2.1V40h-2.03v-2.03z"/>
        <rect width="342.9" height="57.51" x="81.87" y="124.24" stroke="#676F76" stroke-width="2" rx="5"/>
        <rect width="284.63" height="57.51" x="463.14" y="121" stroke="#676F76" stroke-width="2" rx="5"/>
        <path fill="#31889C"
              d="M157.8 163h2.1v-7.79c0-2.3 1.35-3.7 3.45-3.7s3.1 1.11 3.1 3.48V163h2.1v-8.52c0-3.13-1.65-4.87-4.6-4.87-2.02 0-3.3.85-3.96 2.3h-.2v-2.07h-2V163zm20.33-11.54c-2.1 0-3.56 1.54-3.72 3.87h7.25c-.05-2.33-1.44-3.87-3.53-3.87zm3.47 8.13h2.1c-.64 2.26-2.66 3.64-5.54 3.64-3.65 0-5.94-2.63-5.94-6.8 0-4.14 2.32-6.82 5.94-6.82 3.55 0 5.7 2.53 5.7 6.62v.8h-9.45v.1c.1 2.6 1.56 4.25 3.8 4.25 1.7 0 2.84-.63 3.39-1.79zm6.94-13.15v3.4h-2.12v1.76h2.12v7.98c0 2.52 1.09 3.52 3.8 3.52.41 0 .82-.05 1.23-.12v-1.77c-.39.03-.6.04-.97.04-1.37 0-1.96-.65-1.96-2.2v-7.45h2.93v-1.76h-2.93v-3.4h-2.1zm25.26 3.4h-2.11l-2.6 10.52h-.19l-2.94-10.52h-2.01L201 160.36h-.2l-2.59-10.52h-2.12l3.69 13.16h2.12l2.93-10.18h.2l2.94 10.18h2.13l3.69-13.16zm8.23 13.4c-3.75 0-6.07-2.6-6.07-6.82 0-4.24 2.32-6.81 6.07-6.81 3.74 0 6.06 2.57 6.06 6.81 0 4.22-2.32 6.81-6.06 6.81zm0-1.9c2.49 0 3.89-1.8 3.89-4.92s-1.4-4.92-3.9-4.92c-2.48 0-3.89 1.8-3.89 4.92 0 3.11 1.4 4.92 3.9 4.92zm9.86 1.66h2.1v-8.15c0-1.86 1.45-3.2 3.45-3.2.42 0 1.17.07 1.35.12v-2.1a8.38 8.38 0 0 0-1.05-.06c-1.75 0-3.26.9-3.65 2.18h-.2v-1.95h-2V163zm12.44-7.41h-.2v-10.97h-2.1V163h2.1v-5l1.26-1.16 4.93 6.16H253l-6.04-7.52 5.67-5.64h-2.58l-5.71 5.75zm23.26 5.8c2.16 0 3.76-1.42 3.76-3.3v-1.2l-3.54.23c-2 .13-2.88.83-2.88 2.14 0 1.35 1.14 2.13 2.66 2.13zm-.39 1.84c-2.55 0-4.44-1.51-4.44-3.92 0-2.35 1.73-3.7 4.8-3.9l3.8-.22v-1.2c0-1.62-1.02-2.51-2.99-2.51-1.57 0-2.67.6-2.96 1.63h-2.13c.28-2.11 2.36-3.5 5.17-3.5 3.2 0 5 1.65 5 4.38V163h-2v-1.94h-.2a4.55 4.55 0 0 1-4.05 2.17zm21.52-9.36c-.36-2.34-2.32-4.26-5.51-4.26-3.7 0-6.03 2.66-6.03 6.76 0 4.19 2.35 6.86 6.04 6.86 3.16 0 5.12-1.78 5.5-4.2h-2.12c-.4 1.5-1.62 2.31-3.4 2.31-2.34 0-3.85-1.93-3.85-4.97 0-2.98 1.49-4.87 3.86-4.87 1.89 0 3.05 1.06 3.39 2.37h2.12zm4.73-7.43v3.4h-2.13v1.76h2.13v7.98c0 2.52 1.08 3.52 3.8 3.52.4 0 .81-.05 1.23-.12v-1.77a11 11 0 0 1-.98.04c-1.37 0-1.95-.65-1.95-2.2v-7.45h2.93v-1.76h-2.93v-3.4h-2.1zM302.2 163h2.1v-13.16h-2.1V163zm1.05-15.83a1.47 1.47 0 0 0 0-2.93c-.8 0-1.47.66-1.47 1.46 0 .8.66 1.47 1.47 1.47zm16.3 2.67h-2.25l-3.6 10.84h-.2l-3.6-10.84h-2.25l4.88 13.16h2.14l4.87-13.16zM322.9 163h2.1v-13.16h-2.1V163zm1.05-15.83a1.47 1.47 0 0 0 0-2.93 1.47 1.47 0 0 0 0 2.93zm6.43-.73v3.4h-2.12v1.76h2.12v7.98c0 2.52 1.09 3.52 3.8 3.52.41 0 .82-.05 1.23-.12v-1.77c-.39.03-.6.04-.97.04-1.37 0-1.96-.65-1.96-2.2v-7.45h2.93v-1.76h-2.93v-3.4h-2.1zm9.83 21.32c2.33 0 3.38-.9 4.5-3.95l5.14-13.97h-2.23l-3.6 10.83h-.2l-3.61-10.83h-2.27l4.87 13.17-.24.78c-.55 1.59-1.21 2.16-2.42 2.16-.3 0-.62 0-.88-.06v1.8c.3.05.66.07.94.07z"/>
        <path fill="#31889C"
              d="M511.16 160.23c-3.37 0-5.53-2.67-5.53-6.81 0-4.13 2.19-6.81 5.53-6.81a4.5 4.5 0 0 1 4.13 2.3h.18v-7.3h2.1V160h-2v-2.1h-.2a4.72 4.72 0 0 1-4.21 2.33zm.49-11.73c-2.4 0-3.85 1.86-3.85 4.92 0 3.08 1.44 4.92 3.85 4.92 2.4 0 3.87-1.88 3.87-4.92 0-3.01-1.5-4.92-3.87-4.92zm15.74-.04c-2.1 0-3.56 1.54-3.72 3.87h7.25c-.05-2.33-1.44-3.87-3.53-3.87zm3.47 8.13h2.1c-.63 2.26-2.66 3.64-5.54 3.64-3.65 0-5.93-2.63-5.93-6.8 0-4.14 2.32-6.82 5.93-6.82 3.55 0 5.71 2.53 5.71 6.62v.8h-9.46v.1c.11 2.6 1.56 4.25 3.8 4.25 1.7 0 2.84-.63 3.4-1.79zm10.12 1.8c2.16 0 3.76-1.42 3.76-3.3v-1.2l-3.54.23c-2 .13-2.88.83-2.88 2.14 0 1.35 1.13 2.13 2.66 2.13zm-.39 1.84c-2.55 0-4.44-1.51-4.44-3.92 0-2.35 1.73-3.7 4.8-3.9l3.79-.22v-1.2c0-1.62-1.01-2.51-2.98-2.51-1.57 0-2.67.6-2.96 1.63h-2.13c.28-2.11 2.36-3.5 5.17-3.5 3.2 0 5 1.65 5 4.38V160h-2v-1.94h-.2a4.55 4.55 0 0 1-4.05 2.17zm15.5 0c-3.37 0-5.53-2.67-5.53-6.81 0-4.13 2.19-6.81 5.53-6.81a4.5 4.5 0 0 1 4.13 2.3h.18v-7.3h2.1V160h-2v-2.1h-.2a4.72 4.72 0 0 1-4.2 2.33zm.5-11.73c-2.4 0-3.85 1.86-3.85 4.92 0 3.08 1.44 4.92 3.84 4.92s3.87-1.88 3.87-4.92c0-3.01-1.49-4.92-3.87-4.92zM567.2 160h2.1v-18.38h-2.1V160zm6.73 0h2.1v-13.16h-2.1V160zm1.05-15.83a1.47 1.47 0 0 0 0-2.93c-.81 0-1.47.66-1.47 1.46 0 .8.66 1.47 1.47 1.47zm5.55 15.83h2.1v-7.79c0-2.3 1.35-3.7 3.45-3.7s3.1 1.11 3.1 3.48V160h2.1v-8.52c0-3.13-1.64-4.87-4.6-4.87-2.01 0-3.3.85-3.95 2.3h-.2v-2.07h-2V160zm20.34-11.54c-2.1 0-3.57 1.54-3.73 3.87h7.25c-.05-2.33-1.44-3.87-3.52-3.87zm3.46 8.13h2.1c-.63 2.26-2.66 3.64-5.54 3.64-3.65 0-5.93-2.63-5.93-6.8 0-4.14 2.32-6.82 5.93-6.82 3.55 0 5.71 2.53 5.71 6.62v.8h-9.46v.1c.11 2.6 1.57 4.25 3.8 4.25 1.7 0 2.84-.63 3.4-1.79zm18.87-8.13c-2.1 0-3.56 1.54-3.72 3.87h7.25c-.05-2.33-1.44-3.87-3.53-3.87zm3.47 8.13h2.1c-.63 2.26-2.66 3.64-5.54 3.64-3.65 0-5.93-2.63-5.93-6.8 0-4.14 2.31-6.82 5.93-6.82 3.55 0 5.71 2.53 5.71 6.62v.8h-9.46v.1c.11 2.6 1.56 4.25 3.8 4.25 1.7 0 2.84-.63 3.4-1.79zm10.24-1.56l3.11 4.97h2.5l-4.53-6.67 4.46-6.49h-2.38l-3.08 4.9h-.2l-3.13-4.9h-2.5l4.56 6.58-4.5 6.58h2.37l3.13-4.97h.2zm15.38-8.42c3.36 0 5.53 2.67 5.53 6.81 0 4.11-2.18 6.81-5.53 6.81-1.88 0-3.4-.82-4.11-2.2h-.2v6.36h-2.1v-17.55h2v2.2h.2a4.74 4.74 0 0 1 4.21-2.43zm-.5 11.73c2.42 0 3.86-1.84 3.86-4.92s-1.44-4.92-3.85-4.92c-2.38 0-3.88 1.9-3.88 4.92s1.5 4.92 3.87 4.92zm9.88 1.66h2.1v-13.16h-2.1V160zm1.05-15.83a1.47 1.47 0 0 0 0-2.93c-.8 0-1.47.66-1.47 1.46 0 .8.66 1.47 1.47 1.47zm5.55 15.83h2.1v-8.15c0-1.86 1.45-3.2 3.45-3.2.42 0 1.18.07 1.35.12v-2.1a8.38 8.38 0 0 0-1.05-.06c-1.75 0-3.26.9-3.65 2.18h-.2v-1.95h-2V160zm14.9-11.54c-2.1 0-3.56 1.54-3.72 3.87h7.25c-.05-2.33-1.44-3.87-3.53-3.87zm3.47 8.13h2.1c-.63 2.26-2.66 3.64-5.54 3.64-3.65 0-5.93-2.63-5.93-6.8 0-4.14 2.32-6.82 5.93-6.82 3.55 0 5.71 2.53 5.71 6.62v.8h-9.46v.1c.11 2.6 1.56 4.25 3.8 4.25 1.7 0 2.84-.63 3.4-1.79zm10.94 3.64c-3.37 0-5.53-2.67-5.53-6.81 0-4.13 2.18-6.81 5.53-6.81a4.5 4.5 0 0 1 4.12 2.3h.19v-7.3h2.1V160h-2v-2.1h-.2a4.72 4.72 0 0 1-4.21 2.33zm.49-11.73c-2.4 0-3.85 1.86-3.85 4.92 0 3.08 1.44 4.92 3.85 4.92 2.39 0 3.87-1.88 3.87-4.92 0-3.01-1.5-4.92-3.87-4.92z"/>
        <rect width="342.9" height="57.51" x="81.87" y="124.24" stroke="#676F76" stroke-width="2" rx="5"/>
        <use fill="#D8D8D8" fill-opacity=".07" xlink:href="#a"/>
        <rect width="342.9" height="57.51" x="81.87" y="284.24" stroke="#676F76" stroke-width="2" rx="5"/>
        <path fill="#38688F"
              d="M104.24 323v-13.24h2v2.33h.16a4 4 0 0 1 1.63-1.9c.73-.45 1.6-.68 2.61-.68 1.44 0 2.54.42 3.3 1.26.76.84 1.14 2.05 1.14 3.64V323h-2.07v-8.07c0-1.2-.25-2.08-.75-2.65-.5-.58-1.26-.86-2.3-.86a3.5 3.5 0 0 0-2.63 1.04c-.68.7-1.01 1.6-1.01 2.74v7.8h-2.08zm21.52-11.7c-1.1 0-1.97.35-2.6 1.07-.62.71-.94 1.7-.94 2.98h6.97c0-1.27-.3-2.26-.91-2.98a3.12 3.12 0 0 0-2.52-1.08zm3.43 8.28h2.02a4.04 4.04 0 0 1-1.75 2.66c-.97.67-2.15 1-3.54 1-1.82 0-3.23-.52-4.24-1.56-1-1.04-1.5-2.5-1.5-4.4v-1.98c0-1.74.5-3.14 1.53-4.2a5.4 5.4 0 0 1 4.07-1.59c1.71 0 3.05.54 4.02 1.62.96 1.08 1.44 2.58 1.44 4.5v1.3h-9.02v.53c0 1.21.34 2.18 1 2.9a3.49 3.49 0 0 0 2.7 1.09c.84 0 1.55-.17 2.13-.5.57-.33.96-.79 1.14-1.37zm10.12-13.38h2.05v3.6h5.37v1.76h-5.34v7.47c0 .72.24 1.27.74 1.65.49.38 1.2.57 2.14.57 1.15 0 1.96-.02 2.43-.07v1.76c-.44.08-1.3.12-2.58.12-1.64 0-2.85-.32-3.64-.97-.78-.65-1.17-1.66-1.17-3.03v-7.5h-3.52v-1.77h3.52v-3.59zm25.37 3.56L161.83 323h-1.99l-2.24-10.33h-.15L155.21 323h-2l-2.84-13.24h2.03l1.8 10.62h.21l2.14-10.61h1.95l2.14 10.6h.22l1.8-10.61h2.02zm12.97 11.9a5.57 5.57 0 0 1-4.17 1.58 5.59 5.59 0 0 1-4.18-1.58 5.84 5.84 0 0 1-1.56-4.28v-2c0-1.79.52-3.21 1.56-4.27a5.59 5.59 0 0 1 4.18-1.59c1.75 0 3.14.53 4.18 1.59a5.84 5.84 0 0 1 1.56 4.27v2a5.8 5.8 0 0 1-1.57 4.28zm-1.47-9.17a3.4 3.4 0 0 0-2.7-1.14 3.4 3.4 0 0 0-2.7 1.13 4.52 4.52 0 0 0-.99 3.09v1.62c0 1.3.33 2.33 1 3.08a3.4 3.4 0 0 0 2.69 1.13 3.4 3.4 0 0 0 2.7-1.13 4.5 4.5 0 0 0 .99-3.08v-1.62a4.5 4.5 0 0 0-1-3.08zm12.7.65h.27a4.52 4.52 0 0 1 1.57-2.78c.8-.63 1.83-.95 3.12-.95.8 0 1.44.1 1.92.3v2.33a6.38 6.38 0 0 0-2.19-.37 4.3 4.3 0 0 0-3.43 1.44c-.82.95-1.23 2.27-1.23 3.96v4.27h4.1V323h-8.8v-1.66h2.67v-9.92h-2.94v-1.66h4.94v3.38zm22.95 9.86h-2.46l-4.53-6.58-1.82 1.76V323h-2.08v-18.44h2.08v11.14h.16l5.77-5.94h2.52l-5.14 5.23 5.5 8.01zm14.15 0h-9.28v-1.92h3.57V307.3h-3.57v-1.91h9.28v1.91h-3.56v13.78h3.56V323zm7.5-7.6v1.91c0 1.22.33 2.2.98 2.93a3.34 3.34 0 0 0 2.62 1.09 3.3 3.3 0 0 0 2.6-1.09c.64-.72.96-1.7.96-2.93v-1.9c0-1.22-.32-2.2-.96-2.92a3.3 3.3 0 0 0-2.6-1.09c-1.1 0-1.98.37-2.62 1.09a4.2 4.2 0 0 0-.97 2.92zm7.19 5.57h-.24a3.62 3.62 0 0 1-1.53 1.68 4.9 4.9 0 0 1-2.43.57 4.72 4.72 0 0 1-3.68-1.53 5.86 5.86 0 0 1-1.39-4.09v-2.46c0-1.7.46-3.05 1.39-4.07a4.72 4.72 0 0 1 3.68-1.53c.96 0 1.77.2 2.45.59.67.4 1.16.95 1.45 1.68h.22v-7.25h2.11V323h-2.03v-2.03zm18.37 2.03h-10.98v-1.72h4.53v-15h-4.5v-1.72h6.58v16.72h4.37V323zm10.31-11.7c-1.1 0-1.97.35-2.6 1.07-.63.71-.94 1.7-.94 2.98h6.97c0-1.27-.3-2.26-.91-2.98a3.12 3.12 0 0 0-2.52-1.08zm3.43 8.28h2.01a4.04 4.04 0 0 1-1.75 2.66c-.96.67-2.14 1-3.53 1-1.82 0-3.24-.52-4.24-1.56s-1.51-2.5-1.51-4.4v-1.98c0-1.74.51-3.14 1.54-4.2a5.4 5.4 0 0 1 4.06-1.59c1.72 0 3.06.54 4.03 1.62.96 1.08 1.44 2.58 1.44 4.5v1.3h-9.02v.53c0 1.21.33 2.18 1 2.9a3.49 3.49 0 0 0 2.7 1.09c.84 0 1.55-.17 2.12-.5a2.4 2.4 0 0 0 1.15-1.37zm12.78 1.75a3.9 3.9 0 0 0 2.8-1 3.68 3.68 0 0 0 1.1-2.68h2.17a5.4 5.4 0 0 1-1.69 4.14 6.15 6.15 0 0 1-4.38 1.58c-2.07 0-3.67-.67-4.82-2-1.15-1.33-1.72-3.2-1.72-5.6v-3.15c0-2.4.57-4.27 1.72-5.6 1.15-1.34 2.75-2 4.82-2a6 6 0 0 1 4.4 1.6c1.09 1.06 1.65 2.54 1.68 4.42h-2.18a4.1 4.1 0 0 0-1.13-2.88 3.73 3.73 0 0 0-2.78-1.1c-1.43 0-2.5.47-3.24 1.41-.73.95-1.1 2.33-1.1 4.15v3.14c0 1.82.37 3.2 1.11 4.15.74.95 1.82 1.42 3.24 1.42zm14.21 1.9a4.27 4.27 0 0 1-3.05-1.1 3.8 3.8 0 0 1-1.16-2.89c0-1.17.4-2.1 1.22-2.76a5.85 5.85 0 0 1 3.48-1.13l3.64-.19v-1.2c0-.82-.25-1.46-.74-1.9-.5-.45-1.2-.67-2.12-.67-.77 0-1.4.16-1.92.46-.51.31-.85.75-1.02 1.32h-2.04a3.58 3.58 0 0 1 1.57-2.58c.93-.66 2.07-1 3.43-1 1.56 0 2.76.39 3.62 1.14a4.06 4.06 0 0 1 1.28 3.21v9.07h-1.98v-1.99h-.2a3.46 3.46 0 0 1-1.52 1.64c-.7.38-1.52.57-2.49.57zm.6-1.82c1 0 1.84-.3 2.51-.88a2.82 2.82 0 0 0 1.02-2.22v-1.56l-3.41.16c-.93.04-1.63.25-2.11.64s-.72.93-.72 1.62c0 .69.24 1.24.72 1.64a3 3 0 0 0 1.99.6zm22.48 1.59h-10.97v-1.72h4.53v-15h-4.5v-1.72h6.57v16.72h4.37V323zm15.96 0h-10.98v-1.72h4.53v-15h-4.5v-1.72h6.58v16.72h4.37V323zm11 .22c-.95 0-1.76-.2-2.44-.57a3.62 3.62 0 0 1-1.53-1.68h-.23V323h-2.04v-18.44h2.1v7.25h.23c.3-.73.78-1.29 1.45-1.68.68-.4 1.5-.6 2.45-.6 1.53 0 2.76.52 3.69 1.54a5.84 5.84 0 0 1 1.38 4.07v2.46c0 1.7-.46 3.07-1.38 4.09a4.72 4.72 0 0 1-3.69 1.53zm-.62-1.9c1.1 0 1.98-.36 2.62-1.08.65-.73.97-1.7.97-2.93v-1.9a4.2 4.2 0 0 0-.97-2.92 3.34 3.34 0 0 0-2.62-1.09 3.3 3.3 0 0 0-2.6 1.09c-.64.72-.96 1.7-.96 2.92v1.9c0 1.23.32 2.2.96 2.93a3.3 3.3 0 0 0 2.6 1.09zm14.4 1.91a4.27 4.27 0 0 1-3.06-1.1 3.8 3.8 0 0 1-1.16-2.89c0-1.17.41-2.1 1.23-2.76a5.85 5.85 0 0 1 3.47-1.13l3.64-.19v-1.2c0-.82-.24-1.46-.74-1.9-.49-.45-1.2-.67-2.11-.67-.77 0-1.4.16-1.92.46-.51.31-.86.75-1.03 1.32h-2.04a3.58 3.58 0 0 1 1.58-2.58c.93-.66 2.07-1 3.43-1a5.3 5.3 0 0 1 3.61 1.14 4.06 4.06 0 0 1 1.28 3.21v9.07h-1.97v-1.99h-.21a3.43 3.43 0 0 1-1.51 1.64c-.7.38-1.53.57-2.5.57zm.6-1.82c1 0 1.83-.3 2.5-.88a2.82 2.82 0 0 0 1.02-2.22v-1.56l-3.4.16c-.93.04-1.64.25-2.12.64-.48.39-.72.93-.72 1.62 0 .69.25 1.24.73 1.64a3 3 0 0 0 1.98.6zm22.21-7.53h-2.05a2.83 2.83 0 0 0-1.08-1.84 3.46 3.46 0 0 0-2.18-.69c-1.16 0-2.04.38-2.66 1.15a5.08 5.08 0 0 0-.93 3.27v1.2c0 1.42.31 2.51.93 3.27.62.76 1.5 1.14 2.66 1.14a3.5 3.5 0 0 0 2.17-.67c.6-.45.96-1.05 1.09-1.81h2.05a4.66 4.66 0 0 1-1.66 3.18 5.52 5.52 0 0 1-3.61 1.16c-1.8 0-3.2-.52-4.2-1.58-1-1.05-1.5-2.53-1.5-4.42v-1.74c0-1.9.5-3.37 1.5-4.42 1-1.05 2.4-1.58 4.2-1.58 1.46 0 2.66.39 3.6 1.17.94.78 1.5 1.85 1.67 3.21zm16.88 9.12h-2.46l-4.53-6.58-1.82 1.76V323h-2.08v-18.44h2.08v11.14h.16l5.77-5.94h2.52l-5.14 5.23 5.5 8.01z"/>
        <path stroke="#676F76" stroke-linecap="round" stroke-linejoin="round" stroke-width="2"
              d="M201.72 185.85v43.45H.55v-79.95h81.11"/>
        <path stroke="#676F76" stroke-linecap="round" stroke-linejoin="round" stroke-width="2"
              d="M70.86 152.35l10.8-3-10.8-3"/>
        <path stroke="#676F76" stroke-linecap="round" stroke-linejoin="round" stroke-width="2" d="M245 63v57.55"/>
        <path stroke="#676F76" stroke-linecap="round" stroke-linejoin="round" stroke-width="2"
              d="M242 109.75l3 10.8 3-10.8"/>
        <path stroke="#676F76" stroke-linecap="round" stroke-linejoin="round" stroke-width="2" d="M245 185.93V277"/>
        <path stroke="#676F76" stroke-linecap="round" stroke-linejoin="round" stroke-width="2"
              d="M242 266.2l3 10.8 3-10.8"/>
        <path stroke="#676F76" stroke-linecap="round" stroke-linejoin="round" stroke-width="2"
              d="M298.47 62.65v22.49h327.7v32.92"/>
        <path stroke="#676F76" stroke-linecap="round" stroke-linejoin="round" stroke-width="2"
              d="M623.17 107.26l3 10.8 3-10.8"/>
        <path stroke="#676F76" stroke-linecap="round" stroke-linejoin="round" stroke-width="2"
              d="M623.63 179.66v132.53H427.02"/>
        <path stroke="#676F76" stroke-linecap="round" stroke-linejoin="round" stroke-width="2"
              d="M437.82 309.19l-10.8 3 10.8 3"/>
        <text fill="#38688F" font-family="SFUIText-Regular, SF UI Text" font-size="12" letter-spacing=".24"
              transform="rotate(-90 260 229.5)">
            <tspan x="231.82" y="233.5">cooldown</tspan>
        </text>
    </g>
</svg>